<svg width="150" height="150" viewBox="0 0 150 150" xmlns="http://www.w3.org/2000/svg"><title>Artboard 4</title><g fill="none" fill-rule="evenodd"><path d="M123.89 142.798c-4.078 0-8.258-.614-12.078-1.574-13.316-3.344-24.675-10.303-34.183-19.588 8.66-8.44 15.235-19.242 18.779-31.115 3.64-12.193 2.87-25.96-3.284-37.338C88.32 44.285 82.47 36.4 75.56 29.691c7.969-7.878 17.771-13.714 28.702-16.44 2.842-.715 5.701-1.229 8.543-1.438a37.19 37.19 0 0 1 2.709-.1c4.834 0 9.618 1.001 14.234 3.553 10.72 5.938 14.419 16.607 9.063 27.603-2.406 4.93-5.65 9.468-8.646 14.093-1.846 2.866-3.999 5.507-5.939 8.31-12.312 17.853-12.067 23.462 2.07 39.76 5.65 6.514 10.465 13.322 11.926 22.067 1.49 8.857-2.43 14.899-11.353 15.584l-.23.018c-.908.066-1.825.097-2.748.097" fill="#DE407C"/><path d="M36.416 139.688c-5.473 0-10.843-1.182-15.895-4.325-10.4-6.48-13.542-17.324-7.625-28.03 2.656-4.802 6.13-9.166 9.362-13.633 1.99-2.767 4.277-5.294 6.359-7.995 13.217-17.197 13.263-22.81-.015-39.814-5.305-6.793-9.762-13.839-10.77-22.647C16.8 14.322 21.026 8.489 29.975 8.262l.23-.006c.266-.004.53-.006.796-.006 4.827 0 9.753.698 13.936 2.24 11.854 4.37 22.053 10.88 30.623 19.2-9.306 9.202-16.109 21.186-19.284 34.246-3.006 12.363-1.525 26.072 5.207 37.121 4.628 7.6 10 14.577 16.146 20.579-8.776 8.555-19.694 14.685-31.761 17.045-2.875.568-5.757.935-8.606.997-.283.007-.564.01-.846.01" fill="#716885"/><path d="M77.629 121.636c-6.146-6.002-11.518-12.979-16.146-20.579-6.732-11.049-8.213-24.758-5.207-37.12 3.175-13.061 9.978-25.045 19.284-34.246 6.91 6.708 12.759 14.594 17.564 23.492 6.153 11.378 6.924 25.145 3.284 37.338-3.544 11.873-10.12 22.675-18.779 31.115" fill="#5A1940"/></g></svg>