<?xml version="1.0" encoding="utf-8"?>
<!-- Generator: Adobe Illustrator 20.1.0, SVG Export Plug-In . SVG Version: 6.00 Build 0)  -->
<svg version="1.1" id="Layer_1" xmlns="http://www.w3.org/2000/svg" xmlns:xlink="http://www.w3.org/1999/xlink" x="0px" y="0px"
	 viewBox="0 0 428 153" style="enable-background:new 0 0 428 153;" xml:space="preserve">
<style type="text/css">
	.st0{fill:#EE3B83;}
	.st1{opacity:0.66;fill:#3A255F;}
</style>
<g>
	<g>
		<g>
			<path d="M190.8,38.5c-4.8,0-8.6,2-11.3,6c-2.7,4-4.1,9.4-4.1,16.4c0,14.5,5.5,21.8,16.6,21.8c3.3,0,6.6-0.5,9.7-1.4
				c3.1-0.9,6.3-2,9.4-3.4v17.2c-6.3,2.8-13.4,4.2-21.4,4.2c-11.4,0-20.1-3.3-26.2-9.9c-6.1-6.6-9.1-16.1-9.1-28.6
				c0-7.8,1.5-14.7,4.4-20.6s7.2-10.5,12.7-13.6c5.5-3.2,12-4.8,19.5-4.8c8.1,0,15.9,1.8,23.4,5.3l-6.2,16c-2.8-1.3-5.6-2.4-8.4-3.3
				S194,38.5,190.8,38.5z"/>
			<path d="M288.4,60.5c0,12.7-3.1,22.3-9.3,28.9c-6.2,6.6-15.3,9.9-27.3,9.9c-11.8,0-20.9-3.3-27.2-10c-6.3-6.6-9.5-16.3-9.5-29
				c0-12.6,3.1-22.1,9.4-28.8c6.3-6.6,15.4-9.9,27.4-9.9c12,0,21.1,3.3,27.3,9.9S288.4,47.7,288.4,60.5z M236.5,60.5
				c0,14.6,5.1,21.9,15.2,21.9c5.2,0,9-1.8,11.5-5.3c2.5-3.5,3.7-9.1,3.7-16.6c0-7.5-1.3-13.1-3.8-16.7c-2.5-3.6-6.3-5.4-11.3-5.4
				C241.6,38.4,236.5,45.7,236.5,60.5z"/>
			<path d="M365.9,98.3h-26.7l-27.5-53.1h-0.5c0.7,8.4,1,14.7,1,19.1v34h-18.1V22.9h26.6l27.4,52.4h0.3c-0.5-7.6-0.7-13.7-0.7-18.3
				V22.9h18.2V98.3z"/>
			<path d="M394.3,98.3h-20.1V22.9h44.6v16.3h-24.5v14.4h22.6v16.4h-22.6V98.3z"/>
		</g>
	</g>
	<g>
		<path d="M162.5,134.7h9.4v1.4h-11v-19h1.6V134.7z"/>
		<path d="M189.7,130.7h-8.6l-2,5.3h-1.7l7.2-19h1.5l7.2,19h-1.7L189.7,130.7z M181.6,129.3h7.6l-3.8-10.3L181.6,129.3z"/>
		<path d="M211.6,118.4h-6.5V136h-1.6v-17.6H197v-1.4h14.6V118.4z"/>
		<path d="M220.9,136h-1.6v-19h1.6V136z"/>
		<path d="M244.4,136h-1.6l-10.9-16.2V136h-1.6v-19h1.6l10.9,16.3v-16.3h1.6V136z"/>
		<path d="M267.5,127.6c0,1.7-0.3,3.3-0.9,4.6c-0.6,1.3-1.5,2.3-2.6,3.1c-1.1,0.7-2.4,1.1-3.9,1.1c-2.2,0-4-0.8-5.4-2.4
			c-1.4-1.6-2-3.7-2-6.4v-2c0-1.7,0.3-3.3,0.9-4.6c0.6-1.3,1.5-2.4,2.6-3.1c1.1-0.7,2.4-1.1,3.9-1.1c1.5,0,2.7,0.4,3.9,1.1
			c1.1,0.7,2,1.7,2.6,3c0.6,1.3,0.9,2.8,1,4.5V127.6z M265.9,125.5c0-2.3-0.5-4.1-1.6-5.4c-1-1.3-2.5-1.9-4.2-1.9
			c-1.8,0-3.2,0.6-4.2,1.9c-1,1.3-1.6,3.1-1.6,5.4v2c0,2.3,0.5,4,1.6,5.4c1,1.3,2.5,2,4.2,2c1.8,0,3.2-0.6,4.2-1.9
			c1-1.3,1.5-3.1,1.5-5.4V125.5z"/>
		<path d="M285.8,130.7h-8.6l-2,5.3h-1.7l7.2-19h1.5l7.2,19h-1.7L285.8,130.7z M277.7,129.3h7.6l-3.8-10.3L277.7,129.3z"/>
		<path d="M298.6,117.1l7,16.7l7-16.7h2.1v19h-1.6v-8.3l0.1-8.5l-7.1,16.7H305l-7-16.7l0.1,8.4v8.3h-1.6v-19H298.6z"/>
		<path d="M334.3,126.9h-8.9v7.7h10.2v1.4h-11.8v-19h11.7v1.4h-10.1v7.2h8.9V126.9z M331.1,112h1.9l-3,3.6l-1.4,0L331.1,112z"/>
		<path d="M350.4,128.1h-5.5v7.9h-1.6v-19h6.2c2,0,3.6,0.5,4.7,1.5c1.1,1,1.7,2.4,1.7,4.1c0,1.2-0.4,2.3-1.1,3.2
			c-0.7,0.9-1.7,1.6-2.9,1.9l4.7,8.1v0.2H355L350.4,128.1z M344.9,126.8h4.9c1.3,0,2.4-0.4,3.2-1.1c0.8-0.8,1.2-1.8,1.2-3
			c0-1.3-0.4-2.4-1.3-3.1s-2-1.1-3.6-1.1h-4.5V126.8z"/>
		<path d="M366.5,136h-1.6v-19h1.6V136z"/>
		<path d="M389.4,130.1c-0.2,2-0.9,3.5-2.1,4.6c-1.2,1.1-2.8,1.6-4.8,1.6c-1.4,0-2.7-0.4-3.7-1.1c-1.1-0.7-1.9-1.7-2.5-3
			s-0.9-2.8-0.9-4.4v-2.5c0-1.7,0.3-3.2,0.9-4.5c0.6-1.3,1.4-2.3,2.5-3c1.1-0.7,2.4-1.1,3.8-1.1c2,0,3.6,0.5,4.8,1.6
			c1.2,1.1,1.9,2.6,2.1,4.5h-1.6c-0.4-3.2-2.2-4.8-5.3-4.8c-1.7,0-3.1,0.6-4.1,1.9c-1,1.3-1.5,3.1-1.5,5.3v2.3
			c0,2.2,0.5,3.9,1.5,5.2c1,1.3,2.3,2,4,2c1.7,0,2.9-0.4,3.8-1.2s1.4-2,1.6-3.6H389.4z"/>
		<path d="M407.8,130.7h-8.6l-2,5.3h-1.7l7.2-19h1.5l7.2,19h-1.7L407.8,130.7z M399.6,129.3h7.6l-3.8-10.3L399.6,129.3z"/>
	</g>
	<path class="st0" d="M127.9,141.2c0.1,0,0.2,0,0.2,0c9.1-0.7,13-6.9,11.5-15.9c-1.5-8.9-6.4-15.8-12.1-22.5
		c-14.3-16.6-14.6-22.3-2.1-40.5c2-2.9,4.2-5.5,6-8.5c3-4.7,6.3-9.3,8.8-14.4c5.4-11.2,1.7-22.1-9.2-28.1
		c-5.6-3.1-11.4-3.9-17.2-3.5c-2.9,0.2-5.8,0.7-8.7,1.5c-24,6-42.7,26.9-48.7,51.6c-3,12.6-1.5,26.6,5.3,37.8
		c12,19.7,28.8,35.3,51.1,40.9C117.6,140.9,122.9,141.6,127.9,141.2"/>
	<path class="st1" d="M30.1,4.3c-0.1,0-0.2,0-0.2,0c-9.1,0.2-13.4,6.2-12.3,15.3c1,9,5.5,16.1,10.9,23.1c13.5,17.3,13.4,23,0,40.6
		c-2.1,2.8-4.4,5.3-6.5,8.1c-3.3,4.5-6.8,9-9.5,13.9c-6,10.9-2.8,22,7.7,28.6c5.4,3.4,11.1,4.5,17,4.4c2.9-0.1,5.8-0.4,8.7-1
		c24.3-4.8,44-24.7,51.3-49.1c3.7-12.4,2.9-26.4-3.3-38C83,29.7,66.8,14.6,45,6.5C40.6,4.9,35.2,4.2,30.1,4.3"/>
</g>
</svg>
