<svg width="500" height="200" viewBox="0 0 500 200" xmlns="http://www.w3.org/2000/svg"><title>Artboard</title><g fill="none" fill-rule="evenodd"><path d="M153.257 177.78c-4.447 0-9.004-.668-13.17-1.714-14.516-3.642-26.9-11.218-37.266-21.33 9.44-9.19 16.61-20.952 20.473-33.88 3.969-13.276 3.129-28.267-3.58-40.656-5.239-9.69-11.616-18.276-19.148-25.581 8.687-8.578 19.374-14.933 31.291-17.902 3.098-.778 6.215-1.338 9.314-1.565.986-.072 1.97-.11 2.953-.11 5.27 0 10.486 1.091 15.519 3.87 11.687 6.466 15.72 18.083 9.88 30.056-2.623 5.37-6.159 10.31-9.426 15.346-2.013 3.121-4.36 5.996-6.474 9.05-13.424 19.44-13.156 25.546 2.257 43.294 6.158 7.092 11.408 14.505 13.001 24.027 1.625 9.645-2.649 16.224-12.377 16.97l-.252.019c-.988.072-1.989.106-2.995.106" fill="#DE407C"/><path d="M57.89 174.393c-5.967 0-11.821-1.287-17.33-4.709-11.338-7.056-14.763-18.864-8.312-30.52 2.895-5.23 6.682-9.982 10.206-14.846 2.17-3.013 4.663-5.765 6.933-8.706 14.41-18.726 14.46-24.838-.016-43.353-5.785-7.397-10.644-15.069-11.742-24.66-1.125-9.716 3.482-16.067 13.238-16.314l.252-.006c.289-.004.577-.007.867-.007 5.263 0 10.634.76 15.193 2.44 12.924 4.758 24.043 11.846 33.387 20.907-10.146 10.019-17.563 23.068-21.024 37.29-3.278 13.461-1.663 28.389 5.676 40.42 5.045 8.276 10.902 15.872 17.603 22.408-9.568 9.315-21.47 15.99-34.627 18.56-3.134.619-6.276 1.019-9.383 1.086-.307.007-.614.01-.922.01" fill="#716885"/><path d="M102.821 154.737c-6.7-6.536-12.558-14.132-17.603-22.408-7.339-12.031-8.954-26.959-5.676-40.42 3.46-14.222 10.878-27.271 21.024-37.29 7.532 7.305 13.91 15.891 19.148 25.58 6.709 12.39 7.549 27.38 3.58 40.657-3.863 12.928-11.032 24.69-20.473 33.88" fill="#5A1940"/><text font-family="OpenSans-Light, Open Sans" font-size="24" font-weight="300" letter-spacing="7.6" fill="#252525" transform="translate(29 20)"><tspan x="152.5" y="156">LATINOAMÉRIC</tspan> <tspan x="406.098" y="156">A</tspan></text><text font-family="OpenSans-Bold, Open Sans" font-size="120" font-weight="bold" letter-spacing="-8" fill="#252525" transform="translate(29 20)"><tspan x="131.506" y="128">CON</tspan> <tspan x="374.635" y="128">F</tspan></text></g></svg>